<svg width="640" height="400" viewBox="0 0 640 400" fill="none" xmlns="http://www.w3.org/2000/svg">
  <rect width="640" height="400" rx="36" fill="#F3F4F6"/>
  <path d="M262 102C276 82 298 70 320 70C342 70 364 82 378 102L416 132L388 172L372 160V302H268V160L252 172L224 132L262 102Z" fill="#9CA3AF"/>
  <path d="M288 106C294 94 306 86 320 86C334 86 346 94 352 106" stroke="#6B7280" stroke-width="12" stroke-linecap="round"/>
  <path d="M298 180L288 232" stroke="#6B7280" stroke-width="8" stroke-linecap="round"/>
  <path d="M342 180L352 232" stroke="#6B7280" stroke-width="8" stroke-linecap="round"/>
  <rect x="286" y="234" width="68" height="48" rx="14" fill="#8B949E"/>
  <text x="320" y="356" text-anchor="middle" fill="#243447" font-family="Arial, sans-serif" font-size="28" font-weight="700">Grey Hoodie</text>
</svg>
