<svg width="640" height="400" viewBox="0 0 640 400" fill="none" xmlns="http://www.w3.org/2000/svg">
  <rect width="640" height="400" rx="36" fill="#F5EFE4"/>
  <rect x="216" y="64" width="208" height="284" rx="28" fill="#2D3748"/>
  <rect x="244" y="92" width="152" height="70" rx="12" fill="#D9F4EB"/>
  <g fill="#F2A154">
    <rect x="244" y="192" width="36" height="28" rx="8"/>
    <rect x="296" y="192" width="36" height="28" rx="8"/>
    <rect x="348" y="192" width="36" height="28" rx="8"/>
    <rect x="244" y="232" width="36" height="28" rx="8"/>
    <rect x="296" y="232" width="36" height="28" rx="8"/>
    <rect x="348" y="232" width="36" height="28" rx="8"/>
    <rect x="244" y="272" width="36" height="28" rx="8"/>
    <rect x="296" y="272" width="36" height="28" rx="8"/>
    <rect x="348" y="272" width="36" height="28" rx="8"/>
  </g>
  <text x="320" y="356" text-anchor="middle" fill="#243447" font-family="Arial, sans-serif" font-size="28" font-weight="700">Calculator</text>
</svg>
